<?xml version="1.0" encoding="UTF-8"?>
<svg version="1.1" xmlns="http://www.w3.org/2000/svg" width="500" height="500">
<path d="M0 0 C0.79762756 -0.00067474 1.59525513 -0.00134949 2.41705322 -0.00204468 C15.74530444 0.01580015 28.69094936 0.75007632 41.8125 3.25 C42.72064453 3.42160645 43.62878906 3.59321289 44.56445312 3.77001953 C76.16598656 9.94788744 107.59499275 22.34206803 133.8125 41.25 C134.77027344 41.93449219 135.72804688 42.61898437 136.71484375 43.32421875 C187.15762206 80.24488566 220.44196227 134.57864262 230.8125 196.25 C230.94237305 196.98283203 231.07224609 197.71566406 231.20605469 198.47070312 C241.00235111 255.93133254 224.51072001 319.5038656 191.11621094 366.64453125 C183.68580592 376.78406774 175.55981462 386.23291708 166.8125 395.25 C165.96042969 396.14203125 165.10835938 397.0340625 164.23046875 397.953125 C158.45639773 403.88177745 152.34010305 409.16932155 145.8125 414.25 C145.21663086 414.71696289 144.62076172 415.18392578 144.00683594 415.66503906 C135.23765943 422.50829577 126.31646541 428.7604711 116.62304688 434.22509766 C114.88836264 435.20705618 113.1702699 436.21815193 111.453125 437.23046875 C59.17474718 466.85882541 -5.70691697 471.26040953 -63.05078125 456.13867188 C-71.62538347 453.70937922 -79.92970598 450.58500611 -88.1875 447.25 C-88.92677734 446.95480469 -89.66605469 446.65960938 -90.42773438 446.35546875 C-127.05328009 431.57022541 -160.75965558 404.99925845 -184.1875 373.25 C-184.61514648 372.67781738 -185.04279297 372.10563477 -185.48339844 371.51611328 C-208.2508621 340.96703733 -222.90398525 305.80970941 -229.1875 268.25 C-229.30609375 267.57485352 -229.4246875 266.89970703 -229.546875 266.20410156 C-233.59971317 242.16449894 -232.71918967 215.12611691 -228.1875 191.25 C-228.02121094 190.35780762 -227.85492188 189.46561523 -227.68359375 188.54638672 C-215.90267199 127.38376792 -179.84248529 73.5622493 -128.39160156 38.71240234 C-97.82568607 18.4321815 -63.46681909 6.10910009 -27.1875 1.25 C-26.48246338 1.15428711 -25.77742676 1.05857422 -25.05102539 0.95996094 C-16.73073297 -0.02189867 -8.36625081 0.00637655 0 0 Z " fill="#004AAD" transform="translate(249.1875,17.75)"/>
<path d="M0 0 C1.41732422 0.60134766 1.41732422 0.60134766 2.86328125 1.21484375 C28.83531922 13.15943077 47.63373278 36.93067006 58 63 C66.53317833 86.15486689 68.18300857 116.64940935 59 140 C58.73767578 140.69528809 58.47535156 141.39057617 58.20507812 142.10693359 C49.61037208 164.51603227 34.01460364 186.68983674 13 199 C12.36030273 199.3810791 11.72060547 199.7621582 11.06152344 200.15478516 C-8.27299027 211.51544863 -27.31976603 216.16157489 -49.625 216.25 C-50.90246094 216.270625 -52.17992187 216.29125 -53.49609375 216.3125 C-83.07665095 216.43238068 -109.73902389 203.50772872 -130.4375 183 C-135.94551379 177.38846428 -141.0584138 171.84642764 -145 165 C-145.3511084 164.39607422 -145.7022168 163.79214844 -146.06396484 163.16992188 C-151.6460518 153.45910004 -156.00389357 143.80344117 -159 133 C-159.38841064 131.75863281 -159.38841064 131.75863281 -159.78466797 130.4921875 C-162.16762883 122.2414148 -162.46231838 114.42555609 -162.39111328 105.91015625 C-162.37506912 103.6348024 -162.39102372 101.36123688 -162.41015625 99.0859375 C-162.45536559 69.17134391 -149.33530901 42.23662559 -128.5625 21.1875 C-123.10202383 15.77908632 -117.58156399 11.01586956 -111 7 C-110.23945313 6.4946875 -109.47890625 5.989375 -108.6953125 5.46875 C-76.42503973 -15.26886791 -34.28460423 -14.96710613 0 0 Z " fill="#FEFEFE" transform="translate(299,147)"/>
</svg>
